<svg xmlns="http://www.w3.org/2000/svg" width="24" height="24" fill="none" viewBox="0 0 24 24" id="kwai">
  <path fill="#bdc5c9" d="M19 11.75C20.5188 11.75 21.75 12.9812 21.75 14.5V19.5C21.75 21.0188 20.5188 22.25 19 22.25H11C9.48122 22.25 8.25 21.0188 8.25 19.5V14.5C8.25 12.9812 9.48122 11.75 11 11.75H19Z" class="colorff884d svgShape"></path>
  <path fill="#bdc5c9" d="M2.25 13.809C2.25 12.8798 3.22789 12.2754 4.05902 12.691L9.33541 15.3292C9.5895 15.4562 9.75 15.7159 9.75 16V18C9.75 18.2841 9.5895 18.5438 9.33541 18.6708L4.05902 21.309C3.22789 21.7246 2.25 21.1202 2.25 20.191V13.809zM10.5 1.25C7.87665 1.25 5.75 3.37665 5.75 6 5.75 8.62335 7.87665 10.75 10.5 10.75 13.1234 10.75 15.25 8.62335 15.25 6 15.25 3.37665 13.1234 1.25 10.5 1.25z" class="colorff884d svgShape"></path>
  <path fill="#bdc5c9" d="M17.5 3.25C15.4289 3.25 13.75 4.92893 13.75 7C13.75 9.07107 15.4289 10.75 17.5 10.75C19.5711 10.75 21.25 9.07107 21.25 7C21.25 4.92893 19.5711 3.25 17.5 3.25Z" class="colorff884d svgShape"></path>
</svg>
